<svg width="162" height="162" xmlns="http://www.w3.org/2000/svg">
 <defs>
  <clipPath id="c0_1">
   <path id="svg_1" d="m0,825l0,-825l1466.7,0l0,825l-1466.7,0z"/>
  </clipPath>
  <style type="text/css">
   <![CDATA[

.g0_1{
fill: #FFFFFF;
}
.g1_1{
fill: #4472C4;
}
.g2_1{
fill: none;
stroke: #4472C4;
stroke-width: 3.4156528;
stroke-linecap: butt;
stroke-linejoin: miter;
stroke-miterlimit: 7;
}

]]>
  </style>
 </defs>
 <g>
  <title>background</title>
  <rect fill="none" id="canvas_background" height="164" width="164" y="-1" x="-1"/>
 </g>
 <g>
  <title>Layer 1</title>
  <path id="svg_6" class="g1_1" d="m134.516406,144.937491l-10.6,0.2l-45.8,-121.3l10.7,0l45.7,121.1z" fill-rule="evenodd"/>
  <path id="svg_7" class="g1_1" d="m31.873814,145.168972l10.6,0l45.8,-121.3l-10.7,0l-45.7,121.3z" fill-rule="evenodd"/>
  <path id="svg_8" class="g1_1" d="m77.847888,21.468972l5.1,-12.6l5,12.6l-10.1,0z" fill-rule="evenodd"/>
  <g stroke="null" id="svg_9" clip-path="url(#c0_1)">
   <path stroke="null" id="svg_10" class="g2_1" d="m-1960.262767,2166.365499l0,0l2.9,-53.6l4.2,-53.5l5.6,-53.4l6.9,-53.2l8.3,-53l9.4,-53l10.9,-52.6l12,-52.2l13.5,-52l14.7,-51.6l16,-51.4l17.3,-50.8l18.4,-50.4l19.8,-50l20.9,-49.4l22.1,-48.8l23.6,-48.3l24.6,-47.8l25.6,-47.1l27.1,-46.4l27.9,-45.9l29.4,-45l30.2,-44.3l31.3,-43.6l32.6,-42.8l33.4,-42l34.6,-41.1l35.6,-40.2l36.5,-39.4l37.6,-38.3l38.3,-37.5l39.4,-36.6l40.3,-35.5l41.1,-34.5l42.1,-33.4l42.7,-32.4l43.6,-31.5l44.3,-30.3l45.1,-29.1l45.8,-28.2l46.4,-26.8l47.2,-25.7l47.7,-24.6l48.3,-23.4l49,-22.1l49.4,-21l49.9,-19.7l50.4,-18.5l50.8,-17.2l51.4,-15.9l51.6,-14.7l51.9,-13.4l52.4,-12.1l52.6,-10.7l52.9,-9.5l53,-8.2l53.3,-6.9l53.3,-5.5l53.6,-4.1l53.7,-2.9l53.6,-1.5l53.8,-0.3l53.6,1.2l53.6,2.4l53.6,3.8l53.4,5.1l53.3,6.4l53.1,7.8l53.1,9l52.7,10.4l52.4,11.8l52.1,12.8l51.6,14.4l51.5,15.5l51,16.8l50.4,18.1l50.2,19.2l49.6,20.6l49,21.7l48.6,23.1l48,24.1l47.4,25.4l46.6,26.6l45.9,27.6l45.4,28.9l44.6,30l43.7,31l43.1,32.1l42.3,33.1l41.4,34.2l40.5,35.2l39.6,36.2l38.8,37.3l37.7,38l37,39.1l35.7,39.9l35,40.9l33.8,41.6l32.8,42.6l31.8,43.3l30.6,44.1l29.6,44.8l28.4,45.5l27.2,46.3l26.2,46.9l25,47.5l23.8,48.1l22.5,48.8l21.4,49.3l20.2,49.7l18.9,50.4l17.6,50.6l16.3,51.1l15.1,51.5l13.9,52l12.6,52.2l11.1,52.6l10,52.7l8.7,53l7.1,53.2l6.2,53.3l4.5,53.4l3.4,53.7l2,53.6l0.6,53.8"/>
  </g>
 </g>
</svg>